<?xml version="1.0" encoding="UTF-8" standalone="no"?>
<!-- Generator: Adobe Illustrator 16.0.0, SVG Export Plug-In . SVG Version: 6.00 Build 0)  -->

<svg
   xmlns:dc="http://purl.org/dc/elements/1.1/"
   xmlns:cc="http://creativecommons.org/ns#"
   xmlns:rdf="http://www.w3.org/1999/02/22-rdf-syntax-ns#"
   xmlns:svg="http://www.w3.org/2000/svg"
   xmlns="http://www.w3.org/2000/svg"
   xmlns:sodipodi="http://sodipodi.sourceforge.net/DTD/sodipodi-0.dtd"
   xmlns:inkscape="http://www.inkscape.org/namespaces/inkscape"
   version="1.1"
   id="signature"
   x="0px"
   y="0px"
   width="300"
   height="62.857994"
   viewBox="0 0 300.00001 62.857994"
   enable-background="new 0 0 626.457 121.89"
   xml:space="preserve"
   sodipodi:docname="Logo.svg"
   inkscape:version="0.92.2 (5c3e80d, 2017-08-06)"><metadata
     id="metadata15"><rdf:RDF><cc:Work
         rdf:about=""><dc:format>image/svg+xml</dc:format><dc:type
           rdf:resource="http://purl.org/dc/dcmitype/StillImage" /><dc:title></dc:title></cc:Work></rdf:RDF></metadata><defs
     id="defs13" /><sodipodi:namedview
     pagecolor="#ffffff"
     bordercolor="#666666"
     borderopacity="1"
     objecttolerance="10"
     gridtolerance="10"
     guidetolerance="10"
     inkscape:pageopacity="0"
     inkscape:pageshadow="2"
     inkscape:window-width="1920"
     inkscape:window-height="1001"
     id="namedview11"
     showgrid="false"
     fit-margin-top="3"
     fit-margin-left="3"
     fit-margin-right="3"
     fit-margin-bottom="3"
     inkscape:zoom="0.54113852"
     inkscape:cx="196.54232"
     inkscape:cy="39.279876"
     inkscape:window-x="-9"
     inkscape:window-y="-9"
     inkscape:window-maximized="1"
     inkscape:current-layer="signature" /><g
     id="g8"
     transform="matrix(0.47144218,0,0,0.47144218,2.3319664,2.6964292)"><path
       d="m 361.28,110.549 c -6.032,2.341 -10.731,-2.646 -14.509,-5.588 -1.165,-0.905 -2.786,-2.221 -4.643,-2.183 -1.456,0.03 -3.253,0.771 -4.407,2.476 -0.127,0.187 -1.534,2.262 -3.122,3.713 -1.583,1.451 -4.514,4.212 -5.42,3.71 -2.787,-1.526 -7.265,-7.167 -10.759,-7.291 -5.042,-0.192 -11.4,5.137 -16.161,5.824 -4.58,-1.249 20.138,-80.893 20.464,-82.369 0.523,-2.41 1.577,-7.252 -0.919,-7.874 -2.456,-0.613 -4.193,0.61 -5.023,2.923 -0.278,0.78 -11.503,41.268 -18.991,67.991 -2.022,-2.447 -7.622,-2.694 -11.507,-0.205 -6.846,4.414 -11.787,10.383 -12.016,17.98 -0.211,6.69 5.225,12.353 12.643,11.041 1.695,-0.303 6.671,-1.367 8.051,-1.664 10.676,-2.627 14.753,-2.906 18.836,-5.206 2.687,-1.516 5.418,-0.732 6.163,0.12 2.043,2.364 4.452,4.598 7.462,5.511 5.305,1.615 7.729,-2.442 10.972,-5.063 5.34,-4.328 8.361,-0.739 11.926,1.039 2.438,1.222 6.382,1.224 8.324,0.916 3.686,-0.593 6.623,-2.829 10.989,-7.895 -3.424,-1.674 -5.532,0.997 -8.353,2.094 z m -69.195,1.576 c -4,2.365 -8.479,2.78 -9.234,-1.998 -1.944,-12.272 10.31,-22.157 13.546,-13.318 l 0.03,-0.006 c -1.904,6.755 -3.442,12.217 -4.342,15.322 z"
       id="path2"
       inkscape:connector-curvature="0" /><path
       d="m 584.497,49.524 c 0.355,-4.025 7.187,-17.843 7.251,-20.605 0.053,-2.761 -4.738,-4.133 -5.88,-1.448 -0.318,0.752 -1.691,3.365 -2.546,5.553 -1.872,4.856 -6.471,15.932 -6.471,15.932 -1.268,0.725 -17.351,0.946 -17.351,0.946 -0.668,2.752 -3.075,7.615 -1.715,7.622 3.419,0.011 14.975,-0.104 16.289,-0.113 l -10.189,35.504 c -8.193,28.594 -22.952,10.043 -25.218,8.371 -1.34,-0.987 -2.737,-1.333 -4.174,-1.229 -2.585,0.188 -5.05,2.741 -5.646,3.295 -2.295,2.156 -4.695,3.927 -5.543,1.77 -1.846,-4.684 -4.515,-7.051 -8.976,-6.718 -3.992,0.308 -10.115,0.36 -12.479,2.757 0,0 -3.484,-10.548 -13.405,-5.592 -3.268,1.621 -5.742,3.294 -7.397,9.502 -0.266,0.973 -0.648,1.607 -1.141,2.041 -1.518,1.346 -5.041,1.749 -6.765,2.376 0,0.007 -0.01,0.007 -0.02,0.013 3.049,-13.132 14.121,-58.07 23.758,-90.577 1.754,-6.238 -3.079,-4.777 -5.342,-4.906 -0.004,0.013 -0.012,0.02 -0.012,0.037 -2.417,-0.136 -37.372,36.176 -38.952,37.772 -0.656,-2.288 -6.594,-30.997 -6.757,-31.156 -0.006,-0.024 -0.853,-3.593 -1.787,-4.784 -0.929,-1.195 -3.926,-1.508 -4.746,0.097 -1.053,2.062 -2.493,7.525 -2.535,7.573 -2.165,5.562 -29.691,87.928 -32.471,96.841 6.596,2.473 8.981,-0.864 10.463,-4.68 3.721,-9.619 24.289,-78.378 25.699,-81.17 0.355,-0.875 0.725,-1.746 1.098,-2.617 1.881,8.515 4.295,19 6.859,26.592 0.358,0.66 0.868,0.888 1.562,1.067 1.292,0.129 2.585,-0.115 3.269,-0.715 0.623,-0.542 1.561,-1.531 1.561,-1.531 l 33.665,-33.113 c -10.67,35.209 -24.026,82.994 -26.574,89.263 -0.125,2.438 1.689,3.771 2.483,3.856 3.558,0.383 5.236,-0.812 6.864,-1.853 6.271,-2.008 8.126,-2.914 8.866,-3.476 -0.278,3.354 1.28,5.674 3.216,6.422 2.551,0.982 7.727,2.19 13.462,-3.822 3.02,-3.166 3.847,-6.889 3.951,-6.956 0.858,-1.201 4.604,-2.196 7.119,-2.667 5.821,-1.083 9.399,1.9 11.733,6.107 0.511,0.574 1.789,4.631 3.61,5.534 1.159,0.57 2.537,0.306 3.28,-0.083 0.333,-0.175 0.665,-0.414 0.908,-0.674 1.326,-1.437 1.959,-3.584 2.625,-4.539 2.678,-3.827 5.285,-2.979 7.709,-2.445 5.04,1.099 9.315,6.488 11.979,6.816 4.089,0.497 8.452,-4.542 11.16,-8.427 -0.678,2.779 0.962,5.807 4.342,7.858 2.567,1.557 5.638,3.606 14.609,1.275 1.171,-0.303 4.814,-0.297 5.262,-1.273 0.816,-1.786 0.185,-3.414 -7.632,-3.116 -5.259,0.199 -5.371,0.312 -7.306,-0.779 -1.276,-0.716 -2.544,-2.685 -2.401,-5.003 2.623,-17.967 14.074,-48.891 14.758,-48.893 0,0 17.966,0.316 31.109,-0.375 10.086,-0.529 9.623,-1.896 11.436,-5.12 0.897,-2.756 -40.524,-2.337 -40.524,-2.337 z m -91.911,60.231 c -1.718,2.843 -5.025,3.457 -6.687,2.755 -1.096,-0.461 -1.964,-1.54 -2.158,-2.76 -0.202,-1.296 -0.163,-2.497 0.949,-4.928 1.7,-3.703 4.839,-5.001 8.349,-3.258 0.207,0.136 2.726,2.937 -0.453,8.191 z"
       id="path4"
       inkscape:connector-curvature="0" /><path
       d="m 234.712,111.401 c -5.125,0.996 -8.508,-3.532 -8.549,-3.533 -3.329,-3.558 -6.44,-5.063 -9.677,-3.49 -2.78,1.36 -6.403,2.941 -9.401,4.385 -5.765,2.759 -9.835,-5.397 -14.559,-5.927 -8.289,-0.928 -13.859,9.861 -15.868,10.555 -1.647,0.562 -4.762,-2.548 -7.035,-4.854 0.861,-1.771 -0.032,-6.416 -0.989,-7.587 -2.466,-3.048 -6.062,-2.146 -7.649,-1.174 -1.912,1.117 -3.94,2.712 -6.438,4.073 -0.463,0.255 -0.925,0.335 -0.925,0.335 -0.755,-0.017 -2.229,-0.381 -3.009,-0.669 -4.906,-1.8 -5.936,-3.248 -8.211,-2.738 -0.917,0.205 -2.119,0.616 -3.185,2.317 -1.553,2.474 3.859,9.775 -0.347,11.427 -3.543,1.387 -14.499,-10.597 -16.219,-11.798 -9.568,-6.68 -15.799,3.264 -17.651,5.649 -5.862,7.546 -6.334,6.236 -8.684,-0.83 -1.328,-3.993 0.835,-6.098 -1.152,-8.747 -2.573,-3.085 -5.916,-2.841 -7.663,-2.79 -2.438,0.069 -5.092,5.225 -6.775,6.366 -1.685,1.144 -9.905,5.306 -12.906,2.673 8.484,-26.053 31.222,-91.476 32.971,-99.164 0.208,-0.871 0.383,-1.963 0.027,-2.682 -0.505,-1.016 -1.393,-2.252 -2.362,-2.513 -0.842,-0.223 -2.41,0.498 -2.959,1.29 -1.029,1.475 -1.761,3.252 -2.238,5 C 90.103,18.61 66.125,92.68 62.513,97.462 62.108,95.483 60.306,91.613 55.193,64.062 48.436,27.698 47.433,15.291 42.765,11.264 40.651,9.439 36.679,19.703 36.025,21.483 33.403,28.605 4.243,109.577 1.417,118.47 c 6.586,2.519 8.988,-0.805 10.489,-4.617 3.771,-9.607 27.75,-84.707 28.791,-86.575 1.651,3.344 13.147,91.493 19.79,93.448 1.771,0.521 2.695,-1.749 4.34,-5.412 -0.019,-0.024 0.483,-0.935 0.839,-2.079 3.553,-0.535 7.738,0.612 12.798,-3.184 6.84,-5.13 8.233,-2.96 9.018,-1.775 1.65,2.614 3.793,5.695 5.928,7.616 2.039,1.832 3.981,2.465 6.381,2.438 1.996,-0.019 4.4,-0.873 7.301,-2.461 2.047,-1.114 3.546,-3.271 5.225,-5.026 4.362,-4.548 5.882,-4.744 10.845,-1.007 1.195,0.906 12.515,9.579 17.853,9.434 2.855,-0.08 5.006,-3.742 6.799,-6.811 3.36,-5.729 9.697,-6.013 14.641,-1.637 3.525,3.116 13.034,7.441 15.809,7.021 2.397,-0.365 8.312,-5.66 9.644,-7.693 2.154,-3.286 14.215,8.703 23.446,4.398 4.143,-1.924 5.398,-4.487 9.205,-3.688 0.182,0.038 0.432,0.18 0.706,0.354 0.982,1.119 7.554,6.643 15.566,4.404 1.045,-0.29 4.298,-0.285 4.698,-1.223 0.727,-1.717 0.04,-4.327 -6.817,-2.994 z"
       id="path6"
       inkscape:connector-curvature="0" /></g></svg>